<svg width="92" height="47" viewBox="0 0 92 47" fill="none" xmlns="http://www.w3.org/2000/svg">
<path fill-rule="evenodd" clip-rule="evenodd" d="M89.1934 34.6326C89.2295 34.202 89.0971 33.8074 88.8684 33.5084C89.8312 32.5875 90.6014 31.559 91.0707 30.5066C92.0517 28.2104 92.0258 27.111 91.9853 25.3959C91.9811 25.2173 91.9767 25.032 91.9733 24.838C91.7808 22.5777 90.6495 20.8675 88.4833 20.6881C88.0501 18.3561 86.1607 17.3993 83.9944 16.9329C83.8982 11.8263 76.7135 11.7665 74.451 15.4978C72.9828 15.0314 70.5639 15.0075 69.3484 15.7848C66.6526 15.1749 63.8606 15.8925 61.538 17.5787C60.1419 15.7729 56.688 15.8207 54.9189 16.6818C54.4857 16.4306 53.3785 15.8805 51.802 15.725C52.5481 11.635 48.0231 10.0085 44.5331 11.1327C46.0856 7.68842 44.0758 2.96453 40.0202 3.0004C36.7513 2.99047 34.3876 6.03361 32.2185 8.82614C31.7762 9.39549 31.3421 9.95441 30.91 10.4749C28.5753 13.4408 25.9758 16.7416 22.9311 19.6596C20.7408 18.9301 18.4783 17.9255 16.1677 16.6578C15.6611 16.365 15.1968 16.0425 14.7383 15.724C13.3994 14.7941 12.1093 13.8981 9.95786 13.8713C3.55547 13.9431 -1.36666 21.9917 0.342247 28.1387C1.58181 33.4486 6.8048 36.4384 12.2926 36.57C16.8537 36.5939 21.5231 33.8313 25.2899 30.6023C25.7552 30.682 26.2205 30.7538 26.6859 30.8176C26.5776 32.3484 26.6979 33.628 27.0349 34.7163C25.0853 37.1201 24.7243 40.5644 26.2887 43.2791C29.514 48.6368 36.7949 47.8236 41.2116 43.2911C43.4259 43.7933 45.3876 43.59 47.0002 42.8127L46.928 43.8651C46.8558 44.8577 47.6019 45.647 48.5888 45.647H86.63C87.6168 45.647 88.4713 44.8577 88.5435 43.8651L89.1934 34.6326ZM48.6971 14.2899C48.8295 14.5769 48.6128 16.1316 47.6862 17.0525C46.7475 17.9734 43.2334 17.9494 43.6426 16.2752C44.2323 13.8594 44.4369 14.1344 44.4369 14.1344C46.1097 13.4408 48.2638 13.3571 48.6971 14.2899ZM41.4884 36.5461C43.6787 37.4071 46.3744 37.8496 47.9509 36.9766C46.8919 41.0786 43.0047 40.9231 40.0322 39.6555C38.1668 42.717 35.8923 43.5302 33.1966 43.8173C29.3576 44.2358 27.3237 40.1577 29.0808 37.2756C29.4177 36.5939 30.1518 35.8285 31.3072 35.3262C30.7897 34.8957 30.2842 34.2858 29.9472 33.4366C29.4085 32.0685 29.7511 30.4163 30.2404 28.0563L30.2481 28.0191C28.1541 27.9234 26.1925 27.6484 24.3873 27.2418C20.2113 31.0448 15.3132 34.1183 10.8604 33.341C0.282074 31.4873 2.55661 21.3459 6.29935 18.5713C9.73222 16.0199 11.1213 16.9928 13.0018 18.31C13.5012 18.6598 14.0352 19.0338 14.6513 19.3726C17.5998 20.999 20.6927 22.3265 23.7495 23.1517C27.5357 19.8081 30.6752 15.8167 33.3384 12.4309C34.7046 10.6941 35.9453 9.11668 37.0837 7.86781C40.7182 3.86147 42.8242 7.60471 41.5365 10.164C39.0213 15.1629 37.1439 19.4443 35.9164 23.2115C36.008 23.1795 36.0995 23.1479 36.1908 23.1163C37.1901 22.7711 38.1632 22.4348 39.0454 21.6568C39.3583 21.7166 41.6689 26.871 34.6768 27.8756C34.4241 29.1792 34.2556 30.4349 34.1954 31.6428C34.1499 32.6473 34.256 33.4806 34.3416 34.153C34.3691 34.3693 34.3945 34.5688 34.4121 34.7522C35.2063 34.7641 36.0969 34.8718 37.0717 35.099C37.3044 35.1548 37.533 35.2146 37.7577 35.2784C38.0946 34.2738 38.4196 33.1018 38.7445 31.7145C38.8672 31.1847 38.9962 30.6188 39.1302 30.0313C40.139 25.6062 41.4284 19.9505 42.4271 19.1693C43.799 18.5354 46.4707 18.6072 46.9641 19.3965C46.1578 21.1426 43.8472 28.0311 42.4271 33.4964C42.1262 34.6326 41.8133 35.6491 41.4884 36.5461ZM51.4169 36.1155H55.5207L55.3281 38.8063L54.1006 38.4117L54.1848 37.2516H52.1149L52.0427 38.3041L55.2559 39.775L55.0754 42.3702C55.0634 42.6453 54.8347 42.8486 54.5699 42.8486H50.4662L50.6587 40.1697L51.8742 40.5524L51.802 41.7244H53.8719L53.9562 40.4567L50.7309 38.9977L50.8994 36.5939C50.9235 36.3308 51.1521 36.1155 51.4169 36.1155ZM59.5522 20.1978C60.0216 21.4415 59.5402 24.9695 56.4233 28.8802C53.6312 32.3723 49.6358 34.4651 47.6862 33.8552C46.5068 33.5443 45.5561 29.4183 46.23 25.8784C46.6151 23.941 48.8295 19.1214 48.8295 19.1214C51.5613 18.2125 53.3906 19.3846 53.3906 19.3846C53.3906 19.3846 50.6587 26.7514 50.4541 27.6245C50.0336 29.3307 50.3727 29.8991 50.6461 30.3575C50.6544 30.3714 50.6626 30.3853 50.6707 30.399L50.7133 30.371C51.6009 29.7875 52.8327 28.9777 54.0645 26.1176C54.9189 24.1324 55.7734 19.6955 55.7734 19.6955C55.7734 19.6955 58.8181 18.2484 59.5522 20.1978ZM57.3981 36.1155H62.1397L62.0554 37.2397H60.4909L60.0938 43.004H58.8302L59.2394 37.2397H57.3259L57.3981 36.1155ZM68.4819 36.1155L68.0486 42.3822C68.0246 42.6453 67.808 42.8486 67.5432 42.8486H63.9689C63.6801 42.8486 63.4514 42.5974 63.4755 42.3104L63.9088 36.1155H65.1604L64.7632 41.7244H66.8452L67.2303 36.1155H68.4819ZM74.4751 36.1155L75.3175 37.0125L74.9685 41.9516L74.0057 42.8486H70.4435L70.5157 41.7244C70.7805 41.7244 71.0091 41.5091 71.0212 41.258L71.2739 37.7061C71.2859 37.455 71.0934 37.2397 70.8407 37.2397L70.9129 36.1155H74.4751ZM77.6883 36.1155H78.9399L78.4706 42.8486H77.219L77.6883 36.1155ZM85.6432 36.57L85.2219 42.4539C85.2099 42.6811 85.0294 42.8486 84.8007 42.8486H81.07C80.8293 42.8486 80.6368 42.6453 80.6488 42.3941L81.07 36.5102C81.0821 36.2949 81.2626 36.1155 81.4912 36.1155H85.2099C85.4626 36.1155 85.6552 36.3308 85.6432 36.57ZM87.5928 24.6466C88.4111 22.5418 88.7601 25.2565 88.8323 26.6677L88.8325 26.6707C88.8692 27.1807 89.0649 29.9021 84.9572 32.6115C81.2746 35.0511 78.5428 33.6998 78.5789 30.8654C78.603 28.0191 80.3119 23.2833 80.3119 23.2833C79.999 23.1995 79.7222 23.08 79.4454 22.9364C78.6511 25.113 76.1479 30.5186 71.7071 32.8148C71.6831 32.8307 71.663 32.8427 71.647 32.8506C68.7707 34.4412 67.4469 30.8535 67.4469 30.8535C67.4469 30.8535 66.5564 32.6952 64.1495 33.2214C60.8038 33.9389 57.1574 31.3677 59.9614 24.6705C62.6331 18.2843 68.2051 17.794 70.2028 19.5759C70.2028 19.5759 70.1547 19.5041 70.4796 18.7985C71.7312 17.483 75.0889 19.0019 75.0889 19.0019C75.0889 19.0019 73.1754 23.5105 72.0682 26.7634C71.6229 28.0789 71.7914 28.6051 72.1524 28.6769C73.9937 28.641 76.533 22.9962 77.231 21.0469C76.6293 20.2097 75.5221 17.3634 78.1817 16.2871C80.0712 15.5217 81.1182 17.0525 80.5646 18.368C80.0832 19.4802 80.1795 20.5566 80.9377 20.6761C81.5875 19.8151 82.1772 19.7792 82.5864 19.827C82.9879 19.8704 83.0286 19.8823 83.5534 20.0362C83.7521 20.0945 84.0202 20.1731 84.4036 20.2815C85.8116 20.6642 85.3904 21.9558 85.2821 22.2189C85.2774 22.2298 85.27 22.2468 85.2601 22.2695C85.0423 22.7681 83.6214 26.0209 83.3566 28.1028C83.0798 30.2794 84.2953 29.3825 84.7406 28.9759C84.7725 28.9474 84.8083 28.9165 84.8477 28.8825C85.3708 28.4303 86.5182 27.4385 87.5928 24.6466ZM27 23.822C28.2469 23.9818 29.4815 24.0309 30.679 23.9818C32.0988 19.3004 34 15 34 15C34 15 31.1481 19.3373 27 23.822ZM9.75477 20H9.74276C7.17244 22.6266 6.63196 32.0535 13.8625 29.5948C16.0605 28.8512 18.1023 27.7718 20 26.4765C14.5111 24.4136 10.9438 21.3553 9.75477 20ZM33.596 40.7651C32.1449 41.4746 30.8887 40.4813 31.0078 39.0623C31.2894 36.7919 33.0329 36.2527 36 38.1683C35.3611 39.4596 34.5922 40.2685 33.596 40.7651ZM67.5459 21.0427C66.9849 20.8434 65.442 21.2046 64.4001 25.14C62.7972 31.1303 66.4639 29.1501 67.4257 25.8997C67.9466 24.1312 68.3474 21.3167 67.5459 21.0427ZM73.5123 41.7244H71.9599L72.2728 37.2516H73.7891C73.9335 37.2516 74.0419 37.3712 74.0298 37.5028L73.753 41.4972C73.741 41.6168 73.6447 41.7244 73.5123 41.7244ZM84.1268 37.2516H82.442C82.3457 37.2516 82.2494 37.3234 82.2494 37.431L81.9606 41.5091C81.9486 41.6287 82.0448 41.7244 82.1531 41.7244H83.838C83.9343 41.7244 84.0305 41.6407 84.0305 41.5331L84.3194 37.455C84.3314 37.3473 84.2351 37.2516 84.1268 37.2516Z" fill="#E41943"/>
</svg>
