<?xml version="1.0" encoding="utf-8"?>
<!-- Generator: Adobe Illustrator 19.0.0, SVG Export Plug-In . SVG Version: 6.00 Build 0)  -->
<svg version="1.1" id="Layer_1" xmlns="http://www.w3.org/2000/svg" xmlns:xlink="http://www.w3.org/1999/xlink" x="0px" y="0px"
	 viewBox="-203 227 92 47" style="enable-background:new -203 227 92 47;" xml:space="preserve">
<style type="text/css">
	.st0{fill:#E41943;}
	.st1{fill:#FFFFFF;}
</style>
<g id="XMLID_1_">
	<g>
		<path class="st0" d="M-111,252.4c0,1.7,0.1,2.8-0.9,5.1c-0.5,1-1.2,2.1-2.2,3c0.2,0.3,0.4,0.7,0.3,1.1l-0.7,9.2
			c-0.1,1-0.9,1.8-1.9,1.8h-38c-1,0-1.7-0.8-1.7-1.8l0.1-1.1c-1.6,0.8-3.6,1-5.8,0.5c-4.4,4.5-11.7,5.4-14.9,0
			c-1.6-2.7-1.2-6.2,0.7-8.6c-0.3-1.1-0.4-2.4-0.3-3.9c-0.5-0.1-0.9-0.1-1.4-0.2c-3.8,3.2-8.4,6-13,6c-5.5-0.1-10.7-3.1-11.9-8.4
			c-1.7-6.1,3.2-14.2,9.6-14.3c2.1,0,3.4,0.9,4.8,1.9c0.5,0.3,0.9,0.6,1.4,0.9c2.3,1.3,4.6,2.3,6.8,3c3.1-2.9,5.7-6.2,8-9.2
			c0.4-0.5,0.9-1.1,1.3-1.6c2.2-2.8,4.5-5.8,7.8-5.8c4.1,0,6.1,4.7,4.5,8.1c3.5-1.1,8,0.5,7.3,4.6c1.6,0.2,2.7,0.7,3.1,0.9
			c1.8-0.9,5.2-0.9,6.6,0.9c2.3-1.7,5.1-2.4,7.8-1.8c1.2-0.8,3.6-0.8,5.1-0.3c2.3-3.7,9.5-3.7,9.5,1.4c2.2,0.5,4.1,1.4,4.5,3.8
			c2.2,0.2,3.3,1.9,3.5,4.1C-111,252-111,252.2-111,252.4z M-114.2,254c0-0.1,0-0.3,0-0.3c-0.1-1.4-0.4-4.1-1.2-2
			c-1.1,2.8-2.2,3.8-2.7,4.2c0,0-0.1,0.1-0.1,0.1c-0.4,0.4-1.7,1.3-1.4-0.9c0.3-2.1,1.7-5.3,1.9-5.8c0,0,0,0,0-0.1
			c0.1-0.3,0.5-1.6-0.9-1.9c-0.4-0.1-0.7-0.2-0.8-0.2c-0.5-0.2-0.6-0.2-1-0.2c-0.4-0.1-1,0-1.6,0.8c-0.8-0.1-0.9-1.2-0.4-2.3
			c0.6-1.3-0.5-2.8-2.4-2.1c-2.7,1.1-1.6,3.9-0.9,4.8c-0.7,1.9-3.2,7.6-5.1,7.6c-0.4-0.1-0.5-0.6-0.1-1.9c1.1-3.3,3-7.8,3-7.8
			s-3.4-1.5-4.6-0.2c-0.3,0.7-0.3,0.8-0.3,0.8c-2-1.8-7.6-1.3-10.2,5.1c-2.8,6.7,0.8,9.3,4.2,8.6c2.4-0.5,3.3-2.4,3.3-2.4
			s1.3,3.6,4.2,2c0,0,0,0,0.1,0c4.4-2.3,6.9-7.7,7.7-9.9c0.3,0.1,0.6,0.3,0.9,0.3c0,0-1.7,4.7-1.7,7.6c0,2.8,2.7,4.2,6.4,1.7
			C-114.5,257.3-114.2,254.9-114.2,254z M-117.4,263.6c0-0.2-0.2-0.5-0.4-0.5h-3.7c-0.2,0-0.4,0.2-0.4,0.4l-0.4,5.9
			c0,0.3,0.2,0.5,0.4,0.5h3.7c0.2,0,0.4-0.2,0.4-0.4L-117.4,263.6z M-124.5,269.9l0.5-6.7h-1.3l-0.5,6.7H-124.5z M-127.7,264
			l-0.8-0.9h-3.6l-0.1,1.1c0.3,0,0.4,0.2,0.4,0.5l-0.3,3.6c0,0.3-0.2,0.5-0.5,0.5l-0.1,1.1h3.6l1-0.9L-127.7,264z M-134.9,269.4
			l0.4-6.3h-1.3l-0.4,5.6h-2.1l0.4-5.6h-1.3l-0.4,6.2c0,0.3,0.2,0.5,0.5,0.5h3.6C-135.2,269.9-135,269.6-134.9,269.4z M-140.9,264.2
			l0.1-1.1h-4.7l-0.1,1.1h1.9l-0.4,5.8h1.3l0.4-5.8H-140.9z M-146.6,255.9c3.1-3.9,3.6-7.4,3.1-8.7c-0.7-1.9-3.8-0.5-3.8-0.5
			s-0.9,4.4-1.7,6.4c-1.2,2.9-2.5,3.7-3.3,4.3l0,0c0,0,0,0,0,0c-0.3-0.5-0.6-1-0.2-2.7c0.2-0.9,2.9-8.2,2.9-8.2s-1.8-1.2-4.6-0.3
			c0,0-2.2,4.8-2.6,6.8c-0.7,3.5,0.3,7.7,1.5,8C-153.4,261.5-149.4,259.4-146.6,255.9z M-147.7,265.8l0.2-2.7h-4.1
			c-0.3,0-0.5,0.2-0.5,0.5l-0.2,2.4l3.2,1.5l-0.1,1.3h-2.1l0.1-1.2l-1.2-0.4l-0.2,2.7h4.1c0.3,0,0.5-0.2,0.5-0.5l0.2-2.6l-3.2-1.5
			l0.1-1h2.1l-0.1,1.2L-147.7,265.8z M-155.3,244.1c0.9-0.9,1.1-2.5,1-2.8c-0.4-0.9-2.6-0.8-4.3-0.2c0,0-0.2-0.3-0.8,2.1
			C-159.8,244.9-156.3,245-155.3,244.1z M-155.1,264c-1.6,0.9-4.3,0.4-6.5-0.4c0.3-0.9,0.6-1.9,0.9-3c1.4-5.5,3.7-12.4,4.5-14.1
			c-0.5-0.8-3.2-0.9-4.5-0.2c-1,0.8-2.3,6.4-3.3,10.9c-0.1,0.6-0.3,1.1-0.4,1.7c-0.3,1.4-0.7,2.6-1,3.6c-0.2-0.1-0.5-0.1-0.7-0.2
			c-1-0.2-1.9-0.3-2.7-0.4c0-0.2,0-0.4-0.1-0.6c-0.1-0.7-0.2-1.5-0.1-2.5c0.1-1.2,0.2-2.5,0.5-3.8c7-1,4.7-6.2,4.4-6.2
			c-0.9,0.8-1.9,1.1-2.9,1.5c-0.1,0-0.2,0.1-0.3,0.1c1.2-3.8,3.1-8.1,5.6-13.1c1.3-2.6-0.8-6.3-4.5-2.3c-1.1,1.3-2.4,2.8-3.7,4.6
			c-2.7,3.4-5.8,7.4-9.6,10.7c-3.1-0.8-6.1-2.1-9.1-3.8c-0.6-0.3-1.1-0.7-1.6-1.1c-1.9-1.3-3.3-2.3-6.7,0.3
			c-3.7,2.8-6,12.9,4.6,14.8c4.4,0.8,9.4-2.3,13.5-6.1c1.8,0.4,3.8,0.7,5.9,0.8l0,0c-0.5,2.4-0.8,4-0.3,5.4c0.3,0.9,0.8,1.5,1.4,1.9
			c-1.2,0.5-1.9,1.3-2.2,2c-0.1,0.1-0.1,0.2-0.2,0.3c-1.5,2.9,0.6,6.7,4.3,6.3c2.7-0.3,5-1.1,6.8-4.2
			C-160,267.9-156.1,268.1-155.1,264z"/>
		<path class="st1" d="M-114.2,253.7c0,0.1,0,0.2,0,0.3c0,0.9-0.3,3.3-3.9,5.6c-3.7,2.4-6.4,1.1-6.4-1.7c0-2.8,1.7-7.6,1.7-7.6
			c-0.3-0.1-0.6-0.2-0.9-0.3c-0.8,2.2-3.3,7.6-7.7,9.9c0,0-0.1,0-0.1,0c-2.9,1.6-4.2-2-4.2-2s-0.9,1.9-3.3,2.4
			c-3.3,0.7-7-1.9-4.2-8.6c2.7-6.4,8.3-6.9,10.2-5.1c0,0-0.1-0.1,0.3-0.8c1.3-1.3,4.6,0.2,4.6,0.2s-1.9,4.5-3,7.8
			c-0.5,1.3-0.3,1.9,0.1,1.9c1.8,0,4.4-5.7,5.1-7.6c-0.6-0.8-1.7-3.7,0.9-4.8c1.9-0.8,2.9,0.8,2.4,2.1c-0.5,1.1-0.4,2.2,0.4,2.3
			c0.6-0.9,1.2-0.9,1.6-0.8c0.4,0,0.4,0.1,1,0.2c0.2,0.1,0.5,0.1,0.8,0.2c1.4,0.4,1,1.7,0.9,1.9c0,0,0,0,0,0.1
			c-0.2,0.5-1.6,3.8-1.9,5.8c-0.3,2.2,0.9,1.3,1.4,0.9c0,0,0.1-0.1,0.1-0.1c0.5-0.5,1.7-1.4,2.7-4.2
			C-114.6,249.5-114.2,252.3-114.2,253.7z M-135.6,252.9c0.5-1.8,0.9-4.6,0.1-4.9c-0.6-0.2-2.1,0.2-3.2,4.1
			C-140.2,258.1-136.5,256.1-135.6,252.9z"/>
		<path class="st1" d="M-117.8,263.1c0.3,0,0.5,0.2,0.4,0.5l-0.4,5.9c0,0.2-0.2,0.4-0.4,0.4h-3.7c-0.2,0-0.4-0.2-0.4-0.5l0.4-5.9
			c0-0.2,0.2-0.4,0.4-0.4H-117.8z M-118.7,264.5c0-0.1-0.1-0.2-0.2-0.2h-1.7c-0.1,0-0.2,0.1-0.2,0.2l-0.3,4.1c0,0.1,0.1,0.2,0.2,0.2
			h1.7c0.1,0,0.2-0.1,0.2-0.2L-118.7,264.5z"/>
		<path class="st0" d="M-118.9,264.3c0.1,0,0.2,0.1,0.2,0.2l-0.3,4.1c0,0.1-0.1,0.2-0.2,0.2h-1.7c-0.1,0-0.2-0.1-0.2-0.2l0.3-4.1
			c0-0.1,0.1-0.2,0.2-0.2H-118.9z"/>
		<polygon class="st1" points="-124.1,263.1 -124.5,269.9 -125.8,269.9 -125.3,263.1 		"/>
		<path class="st1" d="M-128.5,263.1l0.8,0.9l-0.3,4.9l-1,0.9h-3.6l0.1-1.1c0.3,0,0.5-0.2,0.5-0.5l0.3-3.6c0-0.3-0.2-0.5-0.4-0.5
			l0.1-1.1H-128.5z M-129,264.5c0-0.1-0.1-0.3-0.2-0.3h-1.5l-0.3,4.5h1.5c0.1,0,0.2-0.1,0.2-0.2L-129,264.5z"/>
		<path class="st0" d="M-129.2,264.3c0.1,0,0.3,0.1,0.2,0.3l-0.3,4c0,0.1-0.1,0.2-0.2,0.2h-1.5l0.3-4.5H-129.2z"/>
		<path class="st1" d="M-134.5,263.1l-0.4,6.3c0,0.3-0.2,0.5-0.5,0.5h-3.6c-0.3,0-0.5-0.3-0.5-0.5l0.4-6.2h1.3l-0.4,5.6h2.1l0.4-5.6
			H-134.5z"/>
		<path class="st0" d="M-135.4,248c0.8,0.3,0.4,3.1-0.1,4.9c-1,3.3-4.6,5.2-3-0.8C-137.6,248.2-136,247.8-135.4,248z"/>
		<polygon class="st1" points="-140.9,263.1 -140.9,264.2 -142.5,264.2 -142.9,270 -144.2,270 -143.8,264.2 -145.7,264.2 
			-145.6,263.1 		"/>
		<path class="st1" d="M-143.4,247.2c0.5,1.2,0,4.8-3.1,8.7c-2.8,3.5-6.8,5.6-8.7,5c-1.2-0.3-2.1-4.4-1.5-8c0.4-1.9,2.6-6.8,2.6-6.8
			c2.7-0.9,4.6,0.3,4.6,0.3s-2.7,7.4-2.9,8.2c-0.4,1.7-0.1,2.3,0.2,2.7c0,0,0,0,0,0l0,0c0.9-0.6,2.1-1.4,3.3-4.3
			c0.9-2,1.7-6.4,1.7-6.4S-144.2,245.3-143.4,247.2z"/>
		<path class="st1" d="M-147.5,263.1l-0.2,2.7l-1.2-0.4l0.1-1.2h-2.1l-0.1,1l3.2,1.5l-0.2,2.6c0,0.3-0.3,0.5-0.5,0.5h-4.1l0.2-2.7
			l1.2,0.4l-0.1,1.2h2.1l0.1-1.3l-3.2-1.5l0.2-2.4c0-0.3,0.3-0.5,0.5-0.5H-147.5z"/>
		<path class="st1" d="M-154.3,241.3c0.1,0.3-0.1,1.8-1,2.8c-0.9,0.9-4.5,0.9-4.1-0.8c0.6-2.4,0.8-2.1,0.8-2.1
			C-156.9,240.4-154.7,240.4-154.3,241.3z"/>
		<path class="st1" d="M-161.5,263.5c2.2,0.9,4.9,1.3,6.5,0.4c-1.1,4.1-4.9,3.9-7.9,2.7c-1.9,3.1-4.1,3.9-6.8,4.2
			c-3.7,0.4-5.8-3.4-4.3-6.3l2.5,0.3c-0.2,0.3-0.3,0.7-0.4,1.2c-0.1,1.4,1.1,2.4,2.6,1.7c1-0.5,1.8-1.3,2.4-2.6
			c-1.2-0.8-2.3-1.2-3.1-1.2l1.5-2.3c0.8,0,1.7,0.1,2.7,0.4c0.2,0,0.5,0.1,0.7,0.2c0.3-1,0.7-2.2,1-3.6c0.1-0.5,0.3-1.1,0.4-1.7
			c1-4.4,2.3-10.1,3.3-10.9c1.4-0.6,4-0.6,4.5,0.2c-0.8,1.7-3.1,8.6-4.5,14.1C-160.9,261.6-161.2,262.6-161.5,263.5z"/>
		<path class="st1" d="M-169,242c-0.2,0.3-3,4.5-7,8.8c1.3,0.2,2.5,0.2,3.7,0.2C-170.9,246.4-169.1,242.3-169,242z M-165.9,234.9
			c3.6-4,5.7-0.3,4.5,2.3c-2.5,5-4.4,9.3-5.6,13.1c0.1,0,0.2-0.1,0.3-0.1c1-0.3,2-0.7,2.9-1.5c0.3,0.1,2.6,5.2-4.4,6.2
			c-0.3,1.3-0.4,2.5-0.5,3.8c-0.1,1,0.1,1.8,0.1,2.5c0,0.2,0.1,0.4,0.1,0.6l-1.5,2.3c-0.7,0-1.2,0.3-1.6,0.8l-2.5-0.3
			c0-0.1,0.1-0.2,0.2-0.3c0.3-0.7,1.1-1.5,2.2-2c-0.5-0.4-1-1-1.4-1.9c-0.5-1.4-0.2-3,0.3-5.4l0,0c-2.1-0.1-4.1-0.4-5.9-0.8
			c-4.2,3.8-9.1,6.9-13.5,6.1c-10.6-1.9-8.3-12-4.6-14.8c3.4-2.6,4.8-1.6,6.7-0.3c0.5,0.4,1,0.7,1.6,1.1c3,1.6,6,3,9.1,3.8
			c3.8-3.3,6.9-7.3,9.6-10.7C-168.3,237.7-167.1,236.1-165.9,234.9z M-189.1,256.6c2.2-0.7,4.2-1.8,6.1-3.1
			c-5.5-2.1-9.1-5.1-10.3-6.5h0C-195.8,249.6-196.4,259-189.1,256.6z"/>
		<path class="st0" d="M-167,265.2c-0.6,1.3-1.4,2.1-2.4,2.6c-1.5,0.7-2.7-0.3-2.6-1.7c0.1-0.5,0.2-0.9,0.4-1.2
			c0.3-0.5,0.9-0.8,1.6-0.8C-169.3,264-168.2,264.4-167,265.2z"/>
		<path class="st0" d="M-169,242c-0.1,0.3-1.9,4.4-3.3,9c-1.2,0.1-2.4,0-3.7-0.2C-172,246.5-169.2,242.3-169,242z"/>
		<path class="st0" d="M-183,253.5c-1.9,1.3-3.9,2.4-6.1,3.1c-7.2,2.5-6.7-7-4.1-9.6h0C-192.1,248.4-188.5,251.4-183,253.5z"/>
	</g>
	<g>
	</g>
</g>
</svg>
